<?xml version="1.0" standalone="no"?>
<!DOCTYPE svg PUBLIC "-//W3C//DTD SVG 20010904//EN"
 "http://www.w3.org/TR/2001/REC-SVG-20010904/DTD/svg10.dtd">
<svg version="1.0" xmlns="http://www.w3.org/2000/svg"
 width="398.000000pt" height="376.000000pt" viewBox="0 0 398.000000 376.000000"
 preserveAspectRatio="xMidYMid meet">

<g transform="translate(0.000000,376.000000) scale(0.100000,-0.100000)"
fill="#000000" stroke="none">
<path d="M1892 3459 c-121 -60 -124 -249 -4 -317 120 -67 262 19 262 158 0
137 -134 220 -258 159z"/>
<path d="M1793 2980 c-57 -34 -58 -41 -58 -325 l0 -260 57 -3 58 -3 2 -237 3
-237 120 0 120 0 3 237 2 237 58 3 57 3 3 241 c3 274 -2 304 -57 341 -32 21
-44 23 -185 23 -132 0 -155 -3 -183 -20z"/>
<path d="M1606 2244 c-99 -18 -247 -67 -305 -101 -111 -65 -164 -141 -164
-235 0 -143 145 -254 412 -313 271 -61 581 -61 852 0 266 59 414 171 413 314
-1 144 -133 252 -388 316 -50 12 -116 26 -148 29 l-56 7 -4 -56 c-1 -31 0 -58
3 -60 3 -2 50 -13 105 -24 181 -37 305 -92 349 -153 8 -13 15 -40 15 -62 0
-31 -7 -45 -34 -71 -64 -60 -182 -105 -355 -137 -158 -28 -467 -31 -625 -4
-185 30 -330 86 -388 148 -32 35 -38 90 -13 126 43 60 172 117 347 152 56 12
105 23 109 25 3 3 6 28 5 57 -1 49 -3 53 -26 55 -14 1 -61 -5 -104 -13z"/>
<path d="M1281 1234 c-17 -19 -21 -34 -17 -55 4 -20 2 -27 -7 -23 -15 5 -41
-33 -27 -41 6 -3 10 -14 10 -23 0 -13 -2 -13 -15 4 -12 16 -14 16 -15 3 0 -9
-9 -28 -20 -42 -11 -14 -20 -31 -20 -37 0 -7 -11 -35 -25 -62 -21 -43 -30 -73
-34 -120 -1 -5 -8 -8 -16 -8 -9 0 -18 -12 -21 -29 -4 -17 -15 -38 -25 -47 -11
-9 -19 -25 -19 -35 0 -10 -6 -22 -13 -26 -7 -4 -25 -34 -41 -65 -15 -32 -33
-58 -39 -58 -13 0 -37 45 -37 67 0 7 -4 13 -10 13 -5 0 -10 7 -10 15 0 47
-161 426 -210 495 -20 29 -23 29 -83 23 -34 -3 -64 -7 -66 -9 -2 -2 13 -22 34
-46 20 -24 57 -88 81 -143 82 -181 168 -359 205 -424 32 -55 36 -68 26 -89 -9
-20 -8 -26 6 -37 9 -7 17 -17 17 -23 0 -15 120 -93 138 -90 20 4 28 22 42 98
12 69 21 95 66 200 15 36 27 71 27 78 0 6 4 12 8 12 4 0 7 10 7 23 1 41 14 86
28 98 8 6 14 23 14 38 0 14 7 39 15 55 8 15 15 34 15 41 0 7 7 15 14 18 8 3
18 23 21 44 3 21 15 76 26 122 17 71 18 86 6 98 -11 11 -17 9 -36 -13z"/>
<path d="M2113 1172 l-33 -3 -2 -77 c-1 -42 -3 -95 -3 -117 -1 -37 -4 -40 -33
-43 -42 -4 -41 -25 2 -51 l33 -21 6 -237 c5 -239 13 -313 47 -411 18 -54 44
-91 56 -80 3 4 1 37 -5 75 -10 69 -17 333 -13 539 l2 112 63 12 c55 10 117 43
105 55 -3 3 -40 8 -82 12 l-78 6 3 110 c4 122 2 126 -68 119z"/>
<path d="M1911 1051 c-11 -11 -23 -36 -26 -55 -9 -44 -17 -50 -84 -66 -99 -23
-166 -112 -197 -261 -25 -123 -21 -176 19 -245 28 -46 47 -66 85 -87 80 -43
124 -37 210 31 76 61 44 79 -42 24 -58 -37 -62 -38 -117 -15 -54 21 -78 72
-79 164 0 107 56 265 114 318 40 37 48 19 49 -103 0 -58 3 -104 5 -101 3 3 11
0 18 -6 17 -14 18 -10 34 86 18 102 59 245 81 281 10 17 19 36 19 43 0 19 -68
13 -89 -8z"/>
<path d="M2563 950 c-22 -9 -90 -94 -114 -144 -21 -44 -37 -43 -35 0 1 31 -4
41 -25 53 -14 8 -34 11 -43 8 -15 -6 -17 -22 -13 -149 9 -286 25 -360 81 -370
25 -4 31 20 45 178 6 66 19 147 30 181 23 71 58 143 70 143 4 0 11 -37 14 -82
4 -46 11 -96 15 -113 l9 -30 13 30 c7 17 19 88 27 159 13 108 13 130 2 137
-17 11 -47 10 -76 -1z"/>
<path d="M1404 920 c-59 -19 -62 -21 -87 -77 -45 -101 -61 -172 -61 -268 0
-82 3 -94 30 -139 39 -65 69 -86 132 -91 74 -7 121 15 122 54 0 10 -5 10 -25
-3 -35 -23 -69 -20 -104 10 -34 28 -55 83 -49 128 2 23 10 32 33 38 55 17 160
62 167 72 4 5 5 22 3 36 -3 14 -7 69 -11 122 -3 53 -11 103 -17 111 -20 25
-68 27 -133 7z m71 -90 c4 -21 1 -73 -5 -114 -11 -68 -15 -74 -39 -80 -14 -3
-36 -8 -48 -12 -29 -8 -30 5 -2 106 35 132 80 180 94 100z"/>
<path d="M3335 903 c-3 -21 -12 -47 -19 -58 -7 -11 -16 -33 -18 -50 -12 -62
-85 -226 -104 -232 -19 -6 -25 27 -30 167 -5 149 -10 161 -65 163 l-34 2 3
-70 c3 -79 41 -276 71 -376 18 -58 25 -68 62 -89 l42 -23 18 22 c10 12 23 47
29 79 13 62 34 132 72 232 14 36 23 70 21 76 -2 5 8 31 21 57 15 28 21 49 15
53 -7 4 -6 10 1 19 14 16 -1 49 -26 59 -37 14 -52 7 -59 -31z"/>
<path d="M2974 920 c-12 -5 -29 -18 -37 -31 -13 -17 -28 -22 -79 -26 -39 -2
-69 -10 -81 -20 -55 -50 -154 -305 -143 -367 14 -71 89 -128 140 -105 14 7 23
16 20 21 -3 5 2 12 13 14 10 3 30 23 45 46 l26 41 7 -31 c8 -40 60 -148 75
-157 19 -11 25 4 11 27 -8 13 -9 23 -3 27 5 3 9 56 7 122 -1 71 6 171 17 255
29 207 29 203 -18 184z m-88 -136 c9 -35 -4 -202 -18 -228 -19 -37 -114 -116
-138 -116 -37 0 47 252 113 342 26 35 35 35 43 2z"/>
<path d="M1970 469 c-7 -11 -9 -24 -5 -27 7 -7 35 25 35 40 0 16 -19 8 -30
-13z"/>
</g>
</svg>
